# 3ds Max Wavefront OBJ Exporter v0.97b - (c)2007 guruware
# File Created: 07.11.2018 11:03:07

mtllib Malva_explosivo_v1.mtl

#
# object Cylinder001
#

v  0.552007 0.034435 -0.300067
v  0.208876 0.004651 -0.602042
v  -0.234902 0.004651 -0.602706
v  -0.549170 0.004651 -0.289378
v  -0.549834 0.004651 0.154400
v  -0.236505 0.004651 0.468668
v  0.207272 0.004651 0.469332
v  0.551306 0.034435 0.168385
v  0.505725 0.683400 -0.280977
v  0.187279 0.680778 -0.582888
v  -0.229659 0.680688 -0.590378
v  -0.531179 0.680685 -0.286552
v  -0.526467 0.680685 0.144762
v  -0.227173 0.680685 0.454572
v  0.202300 0.680688 0.456892
v  0.492719 0.680742 0.157644
v  0.502311 1.173625 -0.279569
v  0.183865 1.173033 -0.581480
v  -0.212761 1.173033 -0.597348
v  -0.528050 1.173033 -0.287843
v  -0.541055 1.173033 0.150779
v  -0.222609 1.173033 0.452689
v  0.219197 1.173033 0.449922
v  0.489306 1.173033 0.159052
v  0.552007 1.678506 -0.300067
v  0.221257 1.678506 -0.631808
v  -0.247195 1.678506 -0.632509
v  -0.599125 1.707190 -0.293432
v  -0.599827 1.707190 0.175020
v  -0.269077 1.707190 0.506761
v  0.219565 1.678506 0.499135
v  0.551306 1.678506 0.168385
v  -0.013815 1.628689 -0.066687
v  0.513881 1.714040 -0.284342
v  0.205418 1.714040 -0.593729
v  -0.231469 1.714040 -0.594383
v  -0.561046 1.742723 -0.277593
v  -0.561700 1.742723 0.159294
v  -0.253237 1.742723 0.468682
v  0.203839 1.714040 0.461009
v  0.513227 1.714040 0.152545
v  0.522204 0.004651 -0.287775
v  0.221257 0.034435 -0.631808
v  -0.247195 0.034435 -0.632509
v  -0.578936 0.034435 -0.301760
v  -0.579637 0.034435 0.166692
v  -0.248887 0.034435 0.498434
v  0.219565 0.034435 0.499135
v  0.521540 0.004651 0.156003
v  0.505725 0.680808 -0.280977
# 50 vertices

vn 0.404134 -0.899119 0.168107
vn -0.404636 -0.899119 0.166897
vn -0.404135 -0.899119 -0.168107
vn 0.404636 -0.899119 -0.166897
vn 0.871523 -0.333510 -0.359470
vn 0.365377 -0.327584 -0.871314
vn 0.376443 0.047981 -0.925196
vn 0.923616 0.042502 -0.380956
vn -0.359095 -0.336488 -0.870532
vn -0.380084 0.035626 -0.924266
vn -0.870821 -0.333449 -0.361224
vn -0.925815 0.041393 -0.375703
vn -0.873272 -0.328113 0.360191
vn -0.924714 0.028770 0.379574
vn -0.362620 -0.334225 0.869942
vn -0.393080 0.041661 0.918560
vn 0.359037 -0.336488 0.870556
vn 0.382692 0.035610 0.923189
vn 0.873399 -0.327582 0.360368
vn 0.919233 0.047986 0.390779
vn 0.384514 -0.057952 -0.921298
vn 0.923294 -0.050044 -0.380820
vn -0.350387 -0.045487 -0.935500
vn -0.912130 -0.061016 -0.405334
vn -0.921775 -0.076036 0.380197
vn -0.360922 -0.059926 0.930669
vn 0.411013 -0.045487 0.910494
vn 0.922209 -0.057952 0.382324
vn 0.366709 0.327761 -0.870688
vn 0.871334 0.334087 -0.359392
vn -0.350149 0.335072 -0.874713
vn -0.867682 0.330853 -0.371031
vn -0.873164 0.328448 0.360146
vn -0.353806 0.330852 0.874848
vn 0.368328 0.335071 0.867215
vn 0.873901 0.327761 0.358984
vn 0.339821 0.929987 -0.140163
vn 0.141179 0.929987 -0.339400
vn 0.023451 0.999678 -0.009673
vn -0.109820 0.928995 -0.353422
vn -0.311413 0.935829 -0.165065
vn -0.326127 0.935707 0.134515
vn -0.104492 0.935829 0.336610
vn 0.171271 0.928995 0.328075
vn 0.339400 0.929987 0.141179
vn 0.168107 -0.899119 -0.404135
vn -0.166897 -0.899119 -0.404636
vn -0.168107 -0.899119 0.404134
vn 0.166897 -0.899119 0.404636
# 49 vertex normals

vt 0.780085 0.073115 0.000000
vt 0.867640 0.293261 0.000000
vt 0.776285 0.329590 0.000000
vt 0.688730 0.109444 0.000000
vt 0.141359 0.442156 0.772518
vt 0.242501 0.468067 0.801108
vt 0.218970 0.608362 -0.374698
vt 0.123367 0.597677 -0.231970
vt 0.337527 0.483000 0.649059
vt 0.316211 0.619921 -0.273456
vt 0.430867 0.485758 0.400906
vt 0.416809 0.625141 -0.598728
vt 0.524041 0.482903 0.339804
vt 0.517224 0.624961 -0.814173
vt 0.617965 0.477777 0.504422
vt 0.616783 0.620508 -0.481399
vt 0.712941 0.470395 0.658818
vt 0.715848 0.613940 -0.276771
vt 0.808842 0.458717 0.715362
vt 0.812156 0.605637 -0.484127
vt 0.907656 0.439848 0.775730
vt 0.910154 0.598218 -0.257128
vt 0.211689 0.721979 -0.426521
vt 0.114214 0.718864 -0.306057
vt 0.304498 0.727396 -0.257733
vt 0.408862 0.731636 -0.645230
vt 0.512107 0.732035 -0.497562
vt 0.614721 0.727395 -0.549817
vt 0.717957 0.721059 -0.266581
vt 0.810987 0.716415 -0.536930
vt 0.910391 0.715197 -0.333308
vt 0.205121 0.840080 0.801108
vt 0.105775 0.847698 0.772518
vt 0.304392 0.841909 0.649059
vt 0.409137 0.850577 0.708467
vt 0.509176 0.850030 0.777986
vt 0.608284 0.843886 0.814173
vt 0.711330 0.829236 0.658818
vt 0.811351 0.825047 0.715362
vt 0.913270 0.834171 0.775730
vt 0.227885 0.073115 0.000000
vt 0.318456 0.109480 0.000000
vt 0.229413 0.200317 0.000000
vt 0.356593 0.199328 0.000000
vt 0.320787 0.295162 0.000000
vt 0.230953 0.333368 0.000000
vt 0.140283 0.297272 0.000000
vt 0.102219 0.202350 0.000000
vt 0.138205 0.111630 0.000000
vt 0.208125 0.857746 -0.032731
vt 0.114430 0.876079 -0.054949
vt 0.306577 0.857179 -0.184733
vt 0.411292 0.862316 -0.118947
vt 0.510491 0.860697 -0.049485
vt 0.607832 0.851492 -0.019671
vt 0.708063 0.832962 -0.186748
vt 0.807900 0.825564 -0.135431
vt 0.905487 0.847450 -0.075107
vt 0.242618 0.469683 0.149302
vt 0.148507 0.432826 0.125694
vt 0.339454 0.479223 -0.002711
vt 0.432939 0.478195 -0.245882
vt 0.525636 0.473829 -0.307022
vt 0.619105 0.467990 -0.147383
vt 0.713539 0.459697 -0.002158
vt 0.807987 0.445246 0.050302
vt 0.898376 0.414442 0.110638
vt 0.686084 0.290837 0.000000
vt 0.649765 0.199646 0.000000
vt 0.870286 0.111868 0.000000
vt 0.906605 0.203059 0.000000
# 71 texture coords

o Cylinder001
g Cylinder001
usemtl wire_115115115
s 1
f -2/-71/-49 -46/-70/-48 -47/-69/-47 -9/-68/-46 
f -50/-67/-45 -8/-66/-44 -41/-65/-43 -42/-64/-42 
s 2
f -8/-66/-44 -7/-63/-41 -40/-62/-40 -41/-65/-43 
s 1
f -7/-63/-41 -6/-61/-39 -39/-60/-38 -40/-62/-40 
s 2
f -6/-61/-39 -5/-59/-37 -38/-58/-36 -39/-60/-38 
s 1
f -5/-59/-37 -4/-57/-35 -37/-56/-34 -38/-58/-36 
s 2
f -4/-57/-35 -3/-55/-33 -36/-54/-32 -37/-56/-34 
s 1
f -3/-55/-33 -43/-53/-31 -35/-52/-30 -36/-54/-32 
s 2
f -43/-53/-31 -50/-51/-45 -42/-50/-42 -35/-52/-30 
s 1
f -42/-64/-42 -41/-65/-43 -33/-49/-29 -34/-48/-28 
s 2
f -41/-65/-43 -40/-62/-40 -32/-47/-27 -33/-49/-29 
s 1
f -40/-62/-40 -39/-60/-38 -31/-46/-26 -32/-47/-27 
s 2
f -39/-60/-38 -38/-58/-36 -30/-45/-25 -31/-46/-26 
s 1
f -38/-58/-36 -37/-56/-34 -29/-44/-24 -30/-45/-25 
s 2
f -37/-56/-34 -36/-54/-32 -28/-43/-23 -29/-44/-24 
s 1
f -36/-54/-32 -35/-52/-30 -27/-42/-22 -28/-43/-23 
s 2
f -35/-52/-30 -42/-50/-42 -34/-41/-28 -27/-42/-22 
s 1
f -34/-48/-28 -33/-49/-29 -25/-40/-21 -26/-39/-20 
s 2
f -33/-49/-29 -32/-47/-27 -24/-38/-19 -25/-40/-21 
s 1
f -32/-47/-27 -31/-46/-26 -23/-37/-18 -24/-38/-19 
s 2
f -31/-46/-26 -30/-45/-25 -22/-36/-17 -23/-37/-18 
s 1
f -30/-45/-25 -29/-44/-24 -21/-35/-16 -22/-36/-17 
s 2
f -29/-44/-24 -28/-43/-23 -20/-34/-15 -21/-35/-16 
s 1
f -28/-43/-23 -27/-42/-22 -19/-33/-14 -20/-34/-15 
s 2
f -27/-42/-22 -34/-41/-28 -26/-32/-20 -19/-33/-14 
s 1
f -17/-31/-13 -16/-30/-12 -18/-29/-11 
f -16/-30/-12 -15/-28/-10 -18/-29/-11 
f -15/-28/-10 -14/-27/-9 -18/-29/-11 
f -14/-27/-9 -13/-26/-8 -18/-29/-11 
f -13/-26/-8 -12/-25/-7 -18/-29/-11 
f -12/-25/-7 -11/-24/-6 -18/-29/-11 
f -11/-24/-6 -10/-23/-5 -18/-29/-11 
f -10/-23/-5 -17/-31/-13 -18/-29/-11 
s 4
f -25/-40/-21 -16/-22/-12 -17/-21/-13 -26/-39/-20 
s 8
f -24/-38/-19 -15/-20/-10 -16/-22/-12 -25/-40/-21 
f -23/-37/-18 -14/-19/-9 -15/-20/-10 -24/-38/-19 
s 4
f -22/-36/-17 -13/-18/-8 -14/-19/-9 -23/-37/-18 
s 8
f -21/-35/-16 -12/-17/-7 -13/-18/-8 -22/-36/-17 
s 4
f -20/-34/-15 -11/-16/-6 -12/-17/-7 -21/-35/-16 
f -19/-33/-14 -10/-15/-5 -11/-16/-6 -20/-34/-15 
s 8
f -26/-32/-20 -17/-14/-13 -10/-15/-5 -19/-33/-14 
s 4
f -49/-13/-4 -8/-66/-44 -50/-67/-45 -9/-12/-46 
s 8
f -48/-11/-3 -7/-63/-41 -8/-66/-44 -49/-13/-4 
s 4
f -47/-10/-47 -6/-61/-39 -7/-63/-41 -48/-11/-3 
s 8
f -46/-9/-48 -5/-59/-37 -6/-61/-39 -47/-10/-47 
s 4
f -45/-8/-2 -4/-57/-35 -5/-59/-37 -46/-9/-48 
s 8
f -44/-7/-1 -3/-55/-33 -4/-57/-35 -45/-8/-2 
s 4
f -2/-6/-49 -43/-53/-31 -3/-55/-33 -44/-7/-1 
s 8
f -9/-5/-46 -50/-51/-45 -43/-53/-31 -2/-6/-49 
s 1
f -47/-69/-47 -48/-4/-3 -49/-3/-4 -9/-68/-46 
f -2/-71/-49 -44/-2/-1 -45/-1/-2 -46/-70/-48 
# 43 polygons - 8 triangles

#
# object Cylinder002
#

v  0.048309 1.606833 -0.065548
v  0.010163 1.606833 -0.131620
v  -0.066131 1.606833 -0.131620
v  -0.104278 1.606833 -0.065548
v  -0.066131 1.606833 0.000524
v  0.010163 1.606833 0.000524
v  0.041579 1.890504 -0.065548
v  0.006797 1.890504 -0.125792
v  -0.062766 1.890504 -0.125792
v  -0.097547 1.890504 -0.065548
v  -0.062766 1.890504 -0.005305
v  0.006797 1.890504 -0.005305
v  0.048309 2.610557 -0.065548
v  0.010163 2.610557 -0.131620
v  -0.066131 2.610557 -0.131620
v  -0.104278 2.610557 -0.065548
v  -0.066131 2.610557 0.000524
v  0.010163 2.610557 0.000524
v  -0.027984 2.585050 -0.065548
v  0.004775 2.271005 -0.122288
v  0.037533 2.271005 -0.065548
v  0.004775 2.271005 -0.008808
v  -0.060743 2.271005 -0.008808
v  -0.093502 2.271005 -0.065548
v  -0.060743 2.271005 -0.122288
# 25 vertices

vn 0.399598 -0.601071 0.692124
vn -0.399597 -0.601072 0.692124
vn -0.799195 -0.601072 -0.000001
vn -0.399598 -0.601071 -0.692124
vn 0.399597 -0.601072 -0.692124
vn 0.799195 -0.601072 0.000001
vn 0.499926 0.017212 -0.865897
vn 0.999852 0.017212 -0.000000
vn -0.499926 0.017212 -0.865897
vn -0.999852 0.017212 0.000001
vn -0.499926 0.017212 0.865897
vn 0.499926 0.017212 0.865897
vn 0.499972 -0.010618 -0.865977
vn 0.999944 -0.010618 0.000001
vn -0.499973 -0.010618 -0.865976
vn -0.999944 -0.010618 0.000000
vn -0.499973 -0.010618 0.865976
vn 0.499973 -0.010618 0.865976
vn 0.724282 0.689504 0.000000
vn 0.362141 0.689504 -0.627246
vn 0.000000 1.000000 -0.000000
vn -0.362141 0.689504 -0.627246
vn -0.724281 0.689504 0.000000
vn -0.362141 0.689504 0.627246
vn 0.362141 0.689504 0.627246
# 25 vertex normals

vt 0.333333 0.000000 -0.000000
vt 0.083333 0.000000 -1.000000
vt 0.250000 0.000000 -1.000000
vt 0.666667 0.000000 0.000000
vt 0.916667 0.000000 1.000000
vt 0.750000 0.000000 1.000000
vt 0.916667 0.500000 1.000000
vt 0.750000 0.500000 1.000000
vt -0.083333 0.000000 1.000000
vt 0.083333 0.000000 1.000000
vt 0.083333 0.500000 1.000000
vt -0.083333 0.500000 1.000000
vt 0.250000 0.000000 1.000000
vt 0.250000 0.500000 1.000000
vt 0.416667 0.000000 1.000000
vt 0.416667 0.500000 1.000000
vt 0.583333 0.000000 1.000000
vt 0.583333 0.500000 1.000000
vt 0.916667 0.764217 1.000000
vt 0.750000 0.764217 1.000000
vt 0.083333 0.764217 1.000000
vt -0.083333 0.764217 1.000000
vt 0.250000 0.764217 1.000000
vt 0.416667 0.764217 1.000000
vt 0.583333 0.764217 1.000000
vt 0.750000 1.000000 1.000000
vt 0.916667 1.000000 1.000000
vt 0.416667 1.000000 1.000000
vt -0.083333 1.000000 1.000000
vt 0.083333 1.000000 1.000000
vt 0.250000 1.000000 1.000000
vt 0.583333 1.000000 1.000000
# 32 texture coords

o Cylinder002
g Cylinder002
usemtl wire_115115115
s 1
f -20/-32/-25 -21/-31/-24 -22/-30/-23 -23/-29/-22 -24/-28/-21 -25/-27/-20 
s 8
f -25/-27/-20 -24/-28/-21 -18/-26/-19 -19/-25/-18 
f -24/-24/-21 -23/-23/-22 -17/-22/-17 -18/-21/-19 
f -23/-23/-22 -22/-20/-23 -16/-19/-16 -17/-22/-17 
f -22/-20/-23 -21/-18/-24 -15/-17/-15 -16/-19/-16 
f -21/-18/-24 -20/-16/-25 -14/-15/-14 -15/-17/-15 
f -20/-16/-25 -25/-27/-20 -19/-25/-18 -14/-15/-14 
f -19/-25/-18 -18/-26/-19 -6/-14/-13 -5/-13/-12 
f -18/-21/-19 -17/-22/-17 -1/-12/-11 -6/-11/-13 
f -17/-22/-17 -16/-19/-16 -2/-10/-10 -1/-12/-11 
f -16/-19/-16 -15/-17/-15 -3/-9/-9 -2/-10/-10 
f -15/-17/-15 -14/-15/-14 -4/-8/-8 -3/-9/-9 
f -14/-15/-14 -19/-25/-18 -5/-13/-12 -4/-8/-8 
s off
f -13/-7/-7 -12/-6/-6 -7/-5/-5 
f -12/-4/-6 -11/-3/-4 -7/-5/-5 
f -11/-3/-4 -10/-2/-3 -7/-5/-5 
f -10/-2/-3 -9/-5/-2 -7/-5/-5 
f -9/-5/-2 -8/-1/-1 -7/-5/-5 
f -8/-1/-1 -13/-7/-7 -7/-5/-5 
s 8
f -6/-14/-13 -12/-6/-6 -13/-7/-7 -5/-13/-12 
f -1/-12/-11 -11/-3/-4 -12/-4/-6 -6/-11/-13 
f -2/-10/-10 -10/-2/-3 -11/-3/-4 -1/-12/-11 
f -3/-9/-9 -9/-5/-2 -10/-2/-3 -2/-10/-10 
f -4/-8/-8 -8/-1/-1 -9/-5/-2 -3/-9/-9 
f -5/-13/-12 -13/-7/-7 -8/-1/-1 -4/-8/-8 
# 19 polygons - 6 triangles

#
# object Box002
#

v  0.335758 1.521320 0.343670
v  0.337448 1.513946 0.332270
v  0.321268 1.528136 0.337113
v  0.322958 1.520762 0.325713
v  2.486022 4.528131 -1.282603
v  2.487712 4.520756 -1.294003
v  2.471532 4.534946 -1.289160
v  2.473222 4.527572 -1.300560
v  -0.374927 1.525966 0.344542
v  -0.365428 1.527575 0.334827
v  -0.383198 1.514508 0.334557
v  -0.373699 1.516117 0.324842
v  -2.547864 4.514572 -1.285147
v  -2.538365 4.516181 -1.294861
v  -2.556135 4.503113 -1.295132
v  -2.546637 4.504722 -1.304846
v  -0.350635 1.497105 0.307253
v  -0.351500 1.487641 0.318563
v  -0.335704 1.505131 0.315109
v  -0.336569 1.495667 0.326420
v  -2.545342 3.815165 2.122652
v  -2.546206 3.805701 2.133962
v  -2.530411 3.823191 2.130508
v  -2.531275 3.813726 2.141819
v  0.322555 1.497105 0.307253
v  0.323420 1.487641 0.318563
v  0.307624 1.505131 0.315109
v  0.308488 1.495667 0.326419
v  2.517263 3.815165 2.122651
v  2.518127 3.805700 2.133962
v  2.502332 3.823190 2.130508
v  2.503196 3.813726 2.141819
v  -2.577785 3.687129 2.142739
v  -1.941771 4.349328 2.601276
v  -1.042039 4.836362 2.925816
v  0.992361 4.836362 2.925816
v  1.892093 4.349327 2.601276
v  2.528107 3.687129 2.142739
v  -2.577785 4.348659 -1.383607
v  -1.941770 5.132024 -1.570960
v  -1.042039 5.703569 -1.696915
v  0.992361 5.703569 -1.696914
v  1.892093 5.132023 -1.570960
v  2.528107 4.348659 -1.383606
v  -2.576229 3.824830 2.168571
v  -1.961256 4.484750 2.645025
v  -1.042569 4.974751 2.951778
v  0.992891 4.974751 2.951778
v  1.911579 4.484749 2.645025
v  2.526551 3.824829 2.168571
v  -2.576229 4.486359 -1.357774
v  -1.961256 5.274095 -1.562652
v  -1.042569 5.841959 -1.670953
v  0.992892 5.841959 -1.670953
v  1.911579 5.274094 -1.562652
v  2.526551 4.486359 -1.357774
v  -0.024839 5.818062 -1.675436
v  -0.024839 4.950855 2.947295
v  -0.024839 5.089263 2.973260
v  -0.024839 5.956470 -1.649471
v  -3.009803 4.721860 0.511628
v  -2.126725 6.049272 0.760646
v  -1.051432 6.672269 0.877518
v  1.001755 6.672269 0.877518
v  2.077048 6.049271 0.760646
v  2.960126 4.721859 0.511628
v  -2.135329 6.185092 0.786125
v  -3.016359 4.861088 0.537747
v  -1.050474 6.805251 0.902466
v  1.000796 6.805251 0.902465
v  2.085651 6.185091 0.786125
v  2.966681 4.861087 0.537747
v  -0.024839 6.823972 0.905977
v  -0.024839 6.956380 0.930816
v  -2.854416 4.268614 1.517561
v  -2.107644 5.949519 -0.450239
v  -1.047264 6.544065 -0.342886
v  0.997587 6.544065 -0.342886
v  2.057966 5.949519 -0.450239
v  2.804738 4.664019 -0.590183
v  -2.127143 5.653846 1.881043
v  -2.878574 4.804361 -0.570523
v  -1.046699 6.245190 1.993754
v  0.997021 6.245189 1.993753
v  2.077465 5.653846 1.881043
v  2.828896 4.406538 1.550103
v  -0.024839 6.681022 -0.317194
v  -0.024839 6.381742 2.019371
v  -2.854416 4.664020 -0.590183
v  -2.107643 5.517432 1.853047
v  -1.047265 6.110462 1.968479
v  0.997587 6.110462 1.968479
v  2.057966 5.517431 1.853047
v  2.804738 4.268613 1.517561
v  -2.127143 6.086805 -0.426890
v  -2.878574 4.406539 1.550103
v  -1.046699 6.678793 -0.317612
v  0.997021 6.678792 -0.317612
v  2.077466 6.086805 -0.426889
v  2.828896 4.804360 -0.570523
v  -0.024839 6.247418 1.994172
v  -0.024839 6.815346 -0.291995
# 102 vertices

vn 0.104649 -0.345991 0.932384
vn -0.862142 0.108699 0.494870
vn -0.719652 -0.513581 -0.467263
vn 0.247460 -0.968442 -0.029744
vn 0.719710 0.513559 0.467198
vn 0.862187 -0.108732 -0.494784
vn -0.104775 0.346103 -0.932328
vn -0.247463 0.968438 0.029836
vn 0.185691 -0.112827 0.976109
vn -0.366136 -0.877545 0.309610
vn 0.435581 -0.741599 -0.510197
vn 0.987437 0.022940 0.156338
vn -0.435539 0.741730 0.510042
vn 0.366251 0.877452 -0.309739
vn -0.185850 0.112905 -0.976070
vn -0.987449 -0.023037 -0.156252
vn -0.083668 -0.242048 -0.966650
vn 0.838814 0.253176 -0.481969
vn 0.774816 -0.489242 0.400378
vn -0.149275 -0.985104 -0.085363
vn -0.774850 0.489274 -0.400274
vn -0.838805 -0.253192 0.481975
vn 0.083675 0.242036 0.966653
vn 0.149137 0.985116 0.085472
vn 0.083586 -0.242113 -0.966641
vn 0.149239 -0.985108 -0.085385
vn -0.774862 -0.489323 0.400189
vn -0.838805 0.253267 -0.481936
vn 0.774860 0.489273 -0.400255
vn -0.149149 0.985118 0.085420
vn -0.083669 0.242056 0.966648
vn 0.838814 -0.253187 0.481961
vn -0.142235 -0.987946 0.061082
vn -0.320137 -0.833307 -0.450678
vn 0.637077 -0.544555 -0.545520
vn 0.436875 -0.832583 0.340507
vn 0.282002 -0.738224 -0.612781
vn 0.194588 -0.901909 0.385611
vn -0.000000 -0.763135 -0.646239
vn -0.000000 -0.968091 0.250599
vn -0.194589 -0.901909 0.385610
vn -0.282002 -0.738224 -0.612781
vn -0.637077 -0.544555 -0.545520
vn -0.436876 -0.832583 0.340507
vn 0.320137 -0.833308 -0.450678
vn 0.142234 -0.987947 0.061081
vn -0.747642 -0.011614 0.664000
vn -0.480338 0.037510 0.876281
vn -0.634562 0.551842 0.541111
vn -0.935198 0.102943 0.338831
vn -0.232922 0.243226 0.941588
vn -0.277649 0.740189 0.612397
vn -0.000000 0.248635 0.968597
vn 0.000000 0.764197 0.644983
vn 0.232922 0.243225 0.941589
vn 0.480338 0.037510 0.876281
vn 0.634562 0.551842 0.541110
vn 0.277649 0.740189 0.612397
vn 0.747642 -0.011615 0.664001
vn 0.935198 0.102944 0.338831
vn 0.142235 -0.898636 -0.414997
vn -0.436875 -0.652562 -0.619115
vn 0.480338 0.352558 -0.803106
vn 0.747642 0.229834 -0.623064
vn -0.194588 -0.700826 -0.686279
vn 0.232922 0.567956 -0.789413
vn 0.000000 -0.811443 -0.584432
vn 0.000000 0.582785 -0.812626
vn 0.194587 -0.700825 -0.686279
vn 0.436874 -0.652561 -0.619116
vn -0.480338 0.352558 -0.803105
vn -0.232922 0.567956 -0.789413
vn -0.142235 -0.898636 -0.414998
vn -0.747642 0.229835 -0.623063
vn -0.320137 -0.939992 0.118013
vn -0.935198 0.218750 -0.278483
vn -0.282002 -0.910125 0.303557
vn 0.000000 -0.945469 0.325711
vn -0.397118 -0.902033 -0.169218
vn 0.637077 -0.705247 0.311061
vn 0.673035 -0.726930 -0.136369
vn 0.282002 -0.910125 0.303557
vn 0.324260 -0.929749 -0.174417
vn -0.000000 -0.982855 -0.184380
vn -0.324260 -0.929749 -0.174417
vn -0.637077 -0.705247 0.311061
vn -0.673035 -0.726930 -0.136369
vn 0.320136 -0.939993 0.118014
vn 0.397118 -0.902033 -0.169218
vn -0.670061 0.729579 0.136866
vn -0.634562 0.710440 -0.304311
vn -0.954629 0.292692 0.054908
vn -0.321533 0.930664 0.174589
vn -0.277650 0.911818 -0.302487
vn 0.000000 0.982855 0.184380
vn 0.000000 0.946004 -0.324156
vn 0.670061 0.729579 0.136866
vn 0.634562 0.710440 -0.304311
vn 0.277650 0.911818 -0.302487
vn 0.321534 0.930664 0.174589
vn 0.954629 0.292692 0.054908
vn 0.935199 0.218749 -0.278483
# 102 vertex normals

vt 1.000000 0.000000 0.000000
vt 1.000000 1.000000 0.000000
vt 0.000000 1.000000 0.000000
vt 0.000000 0.000000 0.000000
vt 1.000000 0.250000 0.000000
vt 0.800000 0.250000 0.000000
vt 0.800000 0.000000 0.000000
vt 0.600000 0.250000 0.000000
vt 0.600000 0.000000 0.000000
vt 0.500000 0.250000 0.000000
vt 0.500000 0.000000 0.000000
vt 0.400000 0.000000 0.000000
vt 0.400000 0.250000 0.000000
vt 0.200000 0.250000 0.000000
vt 0.200000 0.000000 0.000000
vt 0.000000 0.250000 0.000000
vt 0.200000 1.000000 0.000000
vt 0.400000 1.000000 0.000000
vt 0.500000 1.000000 0.000000
vt 0.800000 1.000000 0.000000
vt 0.600000 1.000000 0.000000
vt 0.250000 0.000000 0.000000
vt 0.250000 1.000000 0.000000
vt 0.400000 0.750000 0.000000
vt 0.500000 0.750000 0.000000
vt 1.000000 0.500000 0.000000
vt 1.000000 0.750000 0.000000
vt 0.800000 0.750000 0.000000
vt 0.800000 0.500000 0.000000
vt 0.600000 0.750000 0.000000
vt 0.600000 0.500000 0.000000
vt 0.500000 0.500000 0.000000
vt 0.400000 0.500000 0.000000
vt 0.200000 0.750000 0.000000
vt 0.200000 0.500000 0.000000
vt 0.000000 0.750000 0.000000
vt 0.000000 0.500000 0.000000
vt 0.750000 0.000000 0.000000
vt 0.750000 1.000000 0.000000
# 39 texture coords

o Box002
g Box002
usemtl wire_115115115
s 2
f -102/-39/-102 -100/-38/-101 -99/-37/-100 -101/-36/-99 
s 4
f -98/-36/-98 -97/-39/-97 -95/-38/-96 -96/-37/-95 
s 8
f -102/-36/-102 -101/-39/-99 -97/-38/-97 -98/-37/-98 
s 16
f -101/-36/-99 -99/-39/-100 -95/-38/-96 -97/-37/-97 
s 32
f -99/-36/-100 -100/-39/-101 -96/-38/-95 -95/-37/-96 
s 64
f -100/-36/-101 -102/-39/-102 -98/-38/-98 -96/-37/-95 
s 2
f -94/-39/-94 -92/-38/-93 -91/-37/-92 -93/-36/-91 
s 4
f -90/-36/-90 -89/-39/-89 -87/-38/-88 -88/-37/-87 
s 8
f -94/-36/-94 -93/-39/-91 -89/-38/-89 -90/-37/-90 
s 16
f -93/-36/-91 -91/-39/-92 -87/-38/-88 -89/-37/-89 
s 32
f -91/-36/-92 -92/-39/-93 -88/-38/-87 -87/-37/-88 
s 64
f -92/-36/-93 -94/-39/-94 -90/-38/-90 -88/-37/-87 
s 2
f -86/-39/-86 -84/-38/-85 -83/-37/-84 -85/-36/-83 
s 4
f -82/-36/-82 -81/-39/-81 -79/-38/-80 -80/-37/-79 
s 8
f -86/-36/-86 -85/-39/-83 -81/-38/-81 -82/-37/-82 
s 16
f -85/-36/-83 -83/-39/-84 -79/-38/-80 -81/-37/-81 
s 32
f -83/-36/-84 -84/-39/-85 -80/-38/-79 -79/-37/-80 
s 64
f -84/-36/-85 -86/-39/-86 -82/-38/-82 -80/-37/-79 
s 2
f -78/-39/-78 -77/-36/-77 -75/-37/-76 -76/-38/-75 
s 4
f -74/-36/-74 -72/-37/-73 -71/-38/-72 -73/-39/-71 
s 8
f -78/-36/-78 -74/-37/-74 -73/-38/-71 -77/-39/-77 
s 16
f -77/-36/-77 -73/-37/-71 -71/-38/-72 -75/-39/-76 
s 32
f -75/-36/-76 -71/-37/-72 -72/-38/-73 -76/-39/-75 
s 64
f -76/-36/-75 -72/-37/-73 -74/-38/-74 -78/-39/-78 
s 2
f -70/-39/-70 -28/-35/-69 -13/-34/-68 -69/-33/-67 
f -69/-33/-67 -13/-34/-68 -12/-32/-66 -68/-31/-65 
f -68/-31/-65 -12/-32/-66 -2/-30/-64 -45/-29/-63 
f -67/-28/-62 -11/-27/-61 -10/-26/-60 -66/-25/-59 
f -66/-25/-59 -10/-26/-60 -9/-24/-58 -65/-36/-57 
s 4
f -58/-36/-56 -57/-25/-55 -22/-26/-54 -7/-24/-53 
f -57/-25/-55 -56/-28/-52 -20/-27/-51 -22/-26/-54 
f -56/-28/-52 -44/-29/-50 -15/-30/-49 -20/-27/-51 
f -55/-31/-48 -54/-33/-47 -18/-34/-46 -19/-32/-45 
f -54/-33/-47 -53/-39/-44 -17/-35/-43 -18/-34/-46 
s 8
f -70/-36/-70 -69/-25/-67 -57/-23/-55 -58/-37/-56 
f -69/-25/-67 -68/-28/-65 -56/-22/-52 -57/-23/-55 
f -68/-28/-65 -45/-29/-63 -44/-21/-50 -56/-22/-52 
f -67/-31/-62 -66/-33/-59 -54/-20/-47 -55/-19/-48 
f -66/-33/-59 -65/-39/-57 -53/-38/-44 -54/-20/-47 
s 16
f -65/-36/-57 -9/-18/-58 -17/-17/-43 -53/-37/-44 
s 32
f -59/-36/-42 -60/-25/-41 -48/-23/-40 -47/-37/-39 
f -60/-25/-41 -61/-28/-38 -49/-22/-37 -48/-23/-40 
f -61/-28/-38 -46/-29/-36 -43/-21/-35 -49/-22/-37 
f -62/-31/-34 -63/-33/-33 -51/-20/-32 -50/-19/-31 
f -63/-33/-33 -64/-39/-30 -52/-38/-29 -51/-20/-32 
s 64
f -64/-36/-30 -14/-18/-28 -21/-17/-27 -52/-37/-29 
s 2
f -46/-21/-36 -61/-22/-38 -25/-16/-26 -16/-15/-25 
s 4
f -44/-29/-50 -55/-31/-48 -19/-32/-45 -15/-30/-49 
s 8
f -45/-29/-63 -67/-31/-62 -55/-19/-48 -44/-21/-50 
s 32
f -46/-29/-36 -62/-31/-34 -50/-19/-31 -43/-21/-35 
s 2
f -42/-14/-24 -14/-13/-28 -27/-12/-23 -41/-11/-22 
f -41/-11/-22 -27/-12/-23 -26/-10/-21 -40/-9/-20 
f -40/-9/-20 -26/-10/-21 -16/-15/-25 -30/-8/-19 
f -39/-7/-18 -25/-16/-26 -24/-6/-17 -38/-5/-16 
f -38/-5/-16 -24/-6/-17 -23/-4/-15 -37/-3/-14 
s 4
f -36/-5/-13 -8/-6/-12 -21/-4/-27 -35/-3/-11 
f -34/-7/-10 -6/-16/-9 -8/-6/-12 -36/-5/-13 
f -29/-8/-8 -1/-15/-7 -6/-16/-9 -34/-7/-10 
f -32/-11/-6 -4/-12/-5 -5/-10/-4 -33/-9/-3 
f -31/-14/-2 -3/-13/-1 -4/-12/-5 -32/-11/-6 
s 16
f -37/-29/-14 -23/-2/-15 -3/-1/-1 -31/-21/-2 
s 64
f -42/-29/-24 -28/-2/-69 -7/-1/-53 -35/-21/-11 
s 2
f -39/-7/-18 -11/-27/-61 -2/-30/-64 -30/-8/-19 
s 4
f -33/-9/-3 -5/-10/-4 -1/-15/-7 -29/-8/-8 
s 2
f -28/-35/-69 -42/-14/-24 -41/-11/-22 -13/-34/-68 
f -13/-34/-68 -41/-11/-22 -40/-9/-20 -12/-32/-66 
f -12/-32/-66 -40/-9/-20 -30/-8/-19 -2/-30/-64 
f -11/-27/-61 -39/-7/-18 -38/-5/-16 -10/-26/-60 
f -10/-26/-60 -38/-5/-16 -37/-3/-14 -9/-24/-58 
s 4
f -22/-26/-54 -36/-5/-13 -35/-3/-11 -7/-24/-53 
f -20/-27/-51 -34/-7/-10 -36/-5/-13 -22/-26/-54 
f -15/-30/-49 -29/-8/-8 -34/-7/-10 -20/-27/-51 
f -18/-34/-46 -32/-11/-6 -33/-9/-3 -19/-32/-45 
f -17/-35/-43 -31/-14/-2 -32/-11/-6 -18/-34/-46 
s 16
f -9/-18/-58 -37/-29/-14 -31/-21/-2 -17/-17/-43 
s 64
f -14/-18/-28 -42/-29/-24 -35/-21/-11 -21/-17/-27 
s 2
f -25/-16/-26 -39/-7/-18 -30/-8/-19 -16/-15/-25 
s 4
f -19/-32/-45 -33/-9/-3 -29/-8/-8 -15/-30/-49 
s 2
f -14/-13/-28 -64/-38/-30 -63/-20/-33 -27/-12/-23 
f -27/-12/-23 -63/-20/-33 -62/-19/-34 -26/-10/-21 
f -26/-10/-21 -62/-19/-34 -46/-21/-36 -16/-15/-25 
f -25/-16/-26 -61/-22/-38 -60/-23/-41 -24/-6/-17 
f -24/-6/-17 -60/-23/-41 -59/-37/-42 -23/-4/-15 
s 4
f -8/-6/-12 -51/-23/-32 -52/-37/-29 -21/-4/-27 
f -6/-16/-9 -50/-22/-31 -51/-23/-32 -8/-6/-12 
f -1/-15/-7 -43/-21/-35 -50/-22/-31 -6/-16/-9 
f -4/-12/-5 -48/-20/-40 -49/-19/-37 -5/-10/-4 
f -3/-13/-1 -47/-38/-39 -48/-20/-40 -4/-12/-5 
s 16
f -23/-2/-15 -59/-39/-42 -47/-38/-39 -3/-1/-1 
s 64
f -28/-2/-69 -70/-39/-70 -58/-38/-56 -7/-1/-53 
s 2
f -11/-27/-61 -67/-28/-62 -45/-29/-63 -2/-30/-64 
s 4
f -5/-10/-4 -49/-19/-37 -43/-21/-35 -1/-15/-7 
# 92 polygons

